<?xml version="1.0" standalone="no"?><!DOCTYPE svg PUBLIC "-//W3C//DTD SVG 1.1//EN" "http://www.w3.org/Graphics/SVG/1.1/DTD/svg11.dtd"><svg class="icon" width="200px" height="200.00px" viewBox="0 0 1024 1024" version="1.1" xmlns="http://www.w3.org/2000/svg"><path d="M761.899048 105.900935 262.099928 105.900935c-68.899206 0-124.94978 55.098899-124.94978 122.781394L137.150148 795.316647c0 67.684542 56.050574 122.782418 124.94978 122.782418l499.79912 0c68.899206 0 124.94978-55.098899 124.94978-122.782418L886.848828 228.682329C886.847805 160.998811 830.798255 105.900935 761.899048 105.900935zM308.156894 297.184493l215.47554 0c15.916505 0 28.818349 12.691043 28.818349 28.342512 0 15.624862-12.901845 28.315906-28.818349 28.315906L308.156894 353.842911c-15.916505 0-28.818349-12.691043-28.818349-28.315906C279.338544 309.875536 292.240389 297.184493 308.156894 297.184493zM715.842083 726.84109l-407.685189 0c-15.916505 0-28.818349-12.691043-28.818349-28.342512s12.901845-28.340465 28.818349-28.340465l407.685189 0c15.916505 0 28.871561 12.688997 28.871561 28.340465S731.758588 726.84109 715.842083 726.84109zM715.842083 540.341488l-407.685189 0c-15.916505 0-28.818349-12.663414-28.818349-28.314883 0-15.678074 12.901845-28.369118 28.818349-28.369118l407.685189 0c15.916505 0 28.871561 12.69002 28.871561 28.369118C744.713644 527.678074 731.758588 540.341488 715.842083 540.341488z" fill="#22A900" /></svg>